<?xml version="1.0" standalone="no"?>
<!DOCTYPE svg PUBLIC "-//W3C//DTD SVG 20010904//EN"
 "http://www.w3.org/TR/2001/REC-SVG-20010904/DTD/svg10.dtd">
<svg version="1.0" xmlns="http://www.w3.org/2000/svg"
 width="180.000000pt" height="180.000000pt" viewBox="0 0 180.000000 180.000000"
 preserveAspectRatio="xMidYMid meet">
<metadata>
Created by potrace 1.11, written by Peter Selinger 2001-2013
</metadata>
<g transform="translate(0.000000,180.000000) scale(0.100000,-0.100000)"
fill="#000000" stroke="none">
<path d="M558 1209 c-3 -8 1 -55 8 -104 7 -49 10 -93 6 -97 -4 -3 -20 -8 -37
-10 -37 -4 -41 -32 -5 -36 14 -1 36 -5 50 -8 l25 -6 -25 -13 c-45 -25 -99 -29
-121 -9 -18 17 -20 16 -42 -4 -27 -25 -50 -28 -66 -8 -6 7 -17 72 -23 145 -7
72 -16 131 -21 131 -6 0 -7 -17 -3 -37 3 -21 9 -78 12 -128 8 -123 18 -155 51
-155 15 0 35 8 45 17 14 13 21 14 30 5 20 -20 91 -14 144 13 27 14 63 25 80
25 58 0 47 25 -16 38 l-58 12 -7 95 c-4 52 -4 98 -1 103 3 5 -1 17 -8 27 -10
14 -14 15 -18 4z"/>
<path d="M1381 1169 c1 -54 26 -276 32 -286 4 -7 42 -11 91 -11 70 0 88 3 101
19 16 17 19 17 41 2 19 -12 27 -13 39 -3 18 15 20 71 3 88 -21 21 -36 13 -65
-30 -20 -30 -37 -44 -55 -46 -27 -3 -27 -3 -21 52 5 52 4 56 -16 56 -24 0 -61
-52 -61 -87 0 -26 -22 -30 -40 -8 -7 9 -19 72 -25 141 -7 69 -15 128 -19 131
-3 4 -6 -5 -5 -18z m149 -213 c0 -31 -16 -42 -36 -25 -13 10 -12 14 2 30 23
26 34 24 34 -5z m148 -24 c3 -21 1 -22 -17 -12 -26 13 -28 43 -3 38 9 -2 18
-14 20 -26z"/>
<path d="M750 1129 c1 -19 9 -86 19 -149 15 -88 19 -103 19 -65 1 63 -21 231
-30 241 -5 4 -8 -8 -8 -27z"/>
<path d="M1486 1104 c-8 -20 14 -38 28 -24 7 7 5 16 -6 26 -14 14 -16 14 -22
-2z"/>
<path d="M1324 1079 c-10 -17 13 -36 27 -22 12 12 4 33 -11 33 -5 0 -12 -5
-16 -11z"/>
<path d="M1274 1069 c-10 -17 13 -36 27 -22 12 12 4 33 -11 33 -5 0 -12 -5
-16 -11z"/>
<path d="M156 1015 c-5 -15 17 -39 27 -28 12 11 8 31 -7 36 -8 3 -17 0 -20 -8z"/>
<path d="M404 1019 c-10 -17 13 -36 27 -22 12 12 4 33 -11 33 -5 0 -12 -5 -16
-11z"/>
<path d="M1324 963 c6 -39 4 -43 -19 -49 -16 -4 -35 0 -51 11 -25 16 -27 16
-48 -4 -12 -12 -34 -21 -47 -21 -24 0 -69 24 -59 32 3 2 17 12 33 21 46 29 32
37 -67 37 -73 0 -98 -4 -110 -16 -17 -16 -21 -34 -8 -34 4 0 24 5 45 11 22 6
46 8 55 4 12 -5 10 -11 -15 -38 -43 -45 -64 -90 -70 -153 -8 -73 10 -112 61
-135 52 -24 100 -24 154 1 23 10 42 21 42 23 0 3 -29 2 -65 -1 -111 -8 -185
36 -185 110 1 39 35 102 76 137 35 31 39 33 43 15 2 -10 8 -25 13 -31 15 -19
78 -16 100 4 14 13 21 14 30 5 17 -17 84 -15 102 4 20 20 20 65 0 90 -14 18
-15 16 -10 -23z"/>
<path d="M233 938 c3 -13 11 -42 18 -66 10 -37 9 -45 -6 -62 -24 -27 -80 -41
-111 -30 -29 11 -47 54 -39 90 4 19 3 21 -5 10 -13 -20 -13 -86 1 -111 27 -51
125 -43 159 14 22 36 26 97 9 146 -12 35 -34 43 -26 9z"/>
<path d="M556 833 c-12 -12 -6 -33 9 -33 8 0 15 6 15 14 0 17 -14 28 -24 19z"/>
<path d="M1237 806 c-7 -19 18 -42 28 -26 8 13 -1 40 -14 40 -5 0 -11 -6 -14
-14z"/>
<path d="M1187 796 c-7 -19 18 -42 28 -26 8 13 -1 40 -14 40 -5 0 -11 -6 -14
-14z"/>
</g>
</svg>
